HIERARCHY
ROOT Hips
{
	OFFSET 0.00000 0.00000 0.00000
	CHANNELS 6 Xposition Yposition Zposition Zrotation Yrotation Xrotation 
	JOINT LHipJoint
	{
		OFFSET 0 0 0
		CHANNELS 3 Zrotation Yrotation Xrotation
		JOINT LeftHip
		{
			OFFSET 1.53139 -1.83434 0.76626
			CHANNELS 3 Zrotation Yrotation Xrotation
			JOINT LeftKnee
			{
				OFFSET 2.56112 -7.03663 0.00000
				CHANNELS 3 Zrotation Yrotation Xrotation
				JOINT LeftAnkle
				{
					OFFSET 2.59983 -7.14299 0.00000
					CHANNELS 3 Zrotation Yrotation Xrotation
					JOINT LeftToe
					{
						OFFSET 0.13742 -0.37757 2.00054
						CHANNELS 3 Zrotation Yrotation Xrotation
						End Site
						{
							OFFSET 0.00000 -0.00000 1.02897
						}
					}
				}
			}
		}
	}
	JOINT RHipJoint
	{
		OFFSET 0 0 0
		CHANNELS 3 Zrotation Yrotation Xrotation
		JOINT RightHip
		{
			OFFSET -1.40122 -1.83435 0.76627
			CHANNELS 3 Zrotation Yrotation Xrotation
			JOINT RightKnee
			{
				OFFSET -2.54052 -6.98003 0.00000
				CHANNELS 3 Zrotation Yrotation Xrotation
				JOINT RightAnkle
				{
					OFFSET -2.63179 -7.23079 0.00000
					CHANNELS 3 Zrotation Yrotation Xrotation
					JOINT RightToe
					{
						OFFSET -0.24131 -0.66299 2.03908
						CHANNELS 3 Zrotation Yrotation Xrotation
						End Site
						{
							OFFSET -0.00000 -0.00000 1.07391
						}
					}
				}
			}
		}
	}
	JOINT lowerback
	{
		OFFSET 0 0 0
		CHANNELS 3 Zrotation Yrotation Xrotation
		JOINT Chest
		{
			OFFSET 0.01174 2.10302 -0.29778
			CHANNELS 3 Zrotation Yrotation Xrotation
			JOINT Chest2
			{
				OFFSET 0.00772 2.13227 -0.01247
				CHANNELS 3 Zrotation Yrotation Xrotation
				JOINT lowerneck
				{
					OFFSET 0 0 0
					CHANNELS 3 Zrotation Yrotation Xrotation
					JOINT Neck
					{
						OFFSET -0.09219 1.60848 0.31481
						CHANNELS 3 Zrotation Yrotation Xrotation
						JOINT Head
						{
							OFFSET 0.13974 1.65456 -0.31134
							CHANNELS 3 Zrotation Yrotation Xrotation
							End Site
							{
								OFFSET 0.04742 1.69515 -0.14578
							}
						}
					}
				}
				JOINT LeftCollar
				{
					OFFSET 0 0 0
					CHANNELS 3 Zrotation Yrotation Xrotation
					JOINT LeftShoulder
					{
						OFFSET 3.24909 1.02882 -0.23993
CHANNELS 3 Zrotation Xrotation Yrotation
						JOINT LeftElbow
						{
OFFSET 0 -5.329550 -0.000000
CHANNELS 3 Zrotation Xrotation Yrotation
							JOINT LeftWrist
							{
OFFSET 0 -3.692320 -0.000000
CHANNELS 3 Zrotation Xrotation Yrotation
								JOINT lhand
								{
									OFFSET 0 0 0
CHANNELS 3 Zrotation Xrotation Yrotation
									JOINT LFingers
									{
OFFSET 0 -0.536600 -0.000000
CHANNELS 3 Zrotation Xrotation Yrotation
										End Site
										{
OFFSET 0 -0.432620 -0.000000
										}
									}
								}
								JOINT LThumb
								{
OFFSET 0 0.000000 0.000000
CHANNELS 3 Zrotation Xrotation Yrotation
									End Site
									{
OFFSET 0 -0.439220 0.439220
									}
								}
							}
						}
					}
				}
				JOINT RightCollar
				{
					OFFSET 0 0 0
					CHANNELS 3 Zrotation Yrotation Xrotation
					JOINT RightShoulder
					{
						OFFSET -3.21387 0.93002 -0.34594
CHANNELS 3 Zrotation Xrotation Yrotation
						JOINT RightElbow
						{
OFFSET 0 -5.234310 0.000000
CHANNELS 3 Zrotation Xrotation Yrotation
							JOINT RightWrist
							{
OFFSET 0 -3.553010 -0.000000
CHANNELS 3 Zrotation Xrotation Yrotation
								JOINT rhand
								{
									OFFSET 0 0 0
CHANNELS 3 Zrotation Xrotation Yrotation
									JOINT RFingers
									{
OFFSET 0 -0.772520 -0.000000
CHANNELS 3 Zrotation Xrotation Yrotation
										End Site
										{
OFFSET 0 -0.622830 -0.000000
										}
									}
								}
								JOINT RThumb
								{
OFFSET 0 0.000000 0.000000
CHANNELS 3 Zrotation Xrotation Yrotation
									End Site
									{
OFFSET 0 -0.632340 0.632340
									}
								}
							}
						}
					}
				}
			}
		}
	}
}
MOTION
Frames: 12
Frame Time: 0.008333333333333333
12.895300 17.765300 -23.211000 -0.998600 -0.082700 1.486500 0.000000 0.000000 0.000000 -16.978500 -10.226700 -21.282300 0.851600 5.885600 16.452800 -0.046500 -4.202500 -0.332800 1.102300 -6.671200 -18.744900 0.000000 0.000000 0.000000 24.697300 -3.525600 16.240900 -0.485300 -4.466900 12.394100 -0.000000 -0.000000 0.000000 -0.000000 -0.000000 0.000000 2.544600 2.808700 10.333400 -0.391400 3.991800 1.523600 -2.371500 1.937800 -3.991800 -12.787500 -7.544000 -19.905200 10.788700 -9.597800 24.055900 4.601200 -4.137400 12.462900 0.000000 -0.000000 0.000000 1.278600 9.452900 -12.114600 14.653800 -23.661600 3.085600 19.912600 17.705400 -23.134100 0.000000 0.000000 0.000000 -7.125000 0.000000 0.000000 -9.707500 54.155700 2.200300 0.000000 -0.000000 0.000000 1.938000 -3.511000 25.704800 -17.493800 -27.504200 -4.312900 -16.399700 0.234300 -8.788800 0.000000 0.000000 0.000000 7.125000 0.000000 -0.000000 7.554600 20.859100 4.407400
12.920777 17.759794 -23.089774 -0.788065 0.124009 1.468489 0.000000 0.000000 0.000000 -17.422714 -10.018591 -21.152022 0.893782 6.025490 16.858472 -0.063671 -4.828505 -0.186564 0.975288 -6.285873 -17.616448 0.000000 0.000000 0.000000 24.451023 -3.507682 16.244446 -0.564344 -4.810419 13.368944 0.000000 0.000000 0.000000 0.000000 0.000000 0.000000 2.398551 2.751960 10.180818 -0.487335 3.891572 1.604604 -2.364501 1.894032 -3.831379 -12.726561 -7.596354 -19.870018 10.788980 -9.678337 23.839486 4.569937 -4.169130 12.378537 0.000000 0.000000 0.000000 1.270854 9.417158 -12.777468 14.902410 -24.009878 3.186201 21.643540 17.707360 -24.459369 0.000000 0.000000 0.000000 -7.125000 0.000000 0.000000 -8.463142 55.856870 2.262266 0.000000 0.000000 0.000000 1.975142 -3.461913 25.580028 -16.981461 -26.833027 -4.079128 -17.743073 0.758677 -10.465893 0.000000 0.000000 0.000000 7.125000 0.000000 0.000000 6.582183 19.041743 4.098690
12.946427 17.787906 -22.961877 -0.568173 0.373346 1.394159 0.000000 0.000000 0.000000 -17.931477 -9.672892 -20.694229 0.892554 6.021724 16.847384 -0.090027 -5.612723 0.096743 0.850703 -5.880357 -16.438262 0.000000 0.000000 0.000000 24.179272 -3.441677 15.774827 -0.700833 -5.347068 14.902037 -0.187758 1.470789 -7.245985 -0.032665 1.085654 -2.985073 2.321644 2.699899 10.411551 -0.614029 3.815258 1.479654 -2.461735 1.850177 -4.090231 -12.787963 -7.704766 -19.918274 10.825737 -9.834081 23.985072 4.568480 -4.237423 12.474394 0.000000 0.000000 0.000000 1.373667 9.439987 -12.061823 14.794652 -23.859258 3.142453 19.174220 17.476939 -21.892397 0.000000 0.000000 0.000000 -7.125000 0.000000 0.000000 -9.963418 52.761753 1.898375 0.000000 0.000000 0.000000 2.062018 -2.977090 25.545627 -17.195809 -27.115029 -4.176337 -16.758311 0.441911 -9.413601 0.000000 0.000000 0.000000 7.125000 0.000000 0.000000 7.289454 20.193171 4.356721
12.970412 17.788062 -22.835545 -0.529163 0.643162 1.294137 0.000000 0.000000 0.000000 -18.225068 -9.324504 -20.187203 0.875827 5.966422 16.686944 -0.125247 -6.519169 0.403330 0.808270 -5.737335 -16.024242 0.000000 0.000000 0.000000 24.080845 -3.694230 15.453224 -0.856224 -5.896044 16.484473 -0.199267 1.644802 -8.015925 -0.100714 2.010604 -5.536087 2.305482 2.661473 10.261518 -0.618026 3.757580 1.624071 -2.435297 1.827987 -3.860253 -12.863113 -7.770239 -20.046450 10.937276 -9.914056 23.917299 4.605465 -4.261994 12.496817 0.000000 0.000000 0.000000 1.412390 9.048305 -11.503264 14.669744 -23.683942 3.092058 17.110155 17.489060 -20.039422 0.000000 0.000000 0.000000 -7.125000 0.000000 0.000000 -11.308741 50.530305 1.546363 0.000000 0.000000 0.000000 2.018304 -2.938485 25.465412 -17.223705 -27.151746 -4.188942 -16.026096 0.461829 -8.597965 0.000000 0.000000 0.000000 7.125000 0.000000 0.000000 7.828305 21.074015 4.529926
12.994042 17.823864 -22.699959 -0.420665 0.972282 1.219938 0.000000 0.000000 0.000000 -18.608607 -8.950029 -19.652645 0.859487 5.912058 16.529426 -0.166959 -7.478291 0.615958 0.772052 -5.610124 -15.657506 0.000000 0.000000 0.000000 23.966987 -3.625295 14.698221 -1.028616 -6.445544 18.084748 -0.156057 1.605582 -7.055177 -0.095686 1.990501 -5.479526 2.242218 2.631493 10.289135 -0.682412 3.709962 1.526638 -2.465795 1.801793 -3.979599 -12.877861 -7.764644 -19.736833 11.073000 -9.974985 23.853205 4.653763 -4.284509 12.428143 0.000000 0.000000 0.000000 1.606965 9.165402 -11.145743 14.617649 -23.610742 3.071140 14.895938 17.506497 -17.718257 0.000000 0.000000 0.000000 -7.125000 0.000000 0.000000 -12.616893 47.873750 0.886309 0.000000 0.000000 0.000000 2.065736 -2.502390 25.147868 -17.096336 -26.984546 -4.131048 -16.358652 0.486656 -8.671226 0.000000 0.000000 0.000000 7.125000 0.000000 0.000000 7.586790 20.982020 4.404489
13.020384 17.849956 -22.563215 -0.231992 1.284122 1.148644 0.000000 0.000000 0.000000 -19.040373 -8.632541 -19.166876 0.853468 5.891771 16.470779 -0.206344 -8.263209 0.883987 0.680767 -5.270818 -14.683654 0.000000 0.000000 0.000000 23.722341 -3.639547 14.122737 -1.216585 -6.990443 19.689476 -0.116255 1.609023 -6.062930 -0.114078 2.169586 -5.974876 1.990891 2.535207 9.897183 -0.657308 3.547491 1.758264 -2.249427 1.734483 -3.546985 -12.806026 -7.766826 -19.841609 10.988504 -9.943108 23.644062 4.606318 -4.271017 12.352142 0.000000 0.000000 0.000000 1.513336 8.915208 -11.778696 14.789349 -23.851521 3.140406 15.748441 17.062739 -18.412157 0.000000 0.000000 0.000000 -7.125000 0.000000 0.000000 -12.045525 48.688443 1.090684 0.000000 0.000000 0.000000 1.903221 -2.673255 25.062680 -16.797312 -26.589247 -3.996562 -16.978527 0.373530 -9.225907 0.000000 0.000000 0.000000 7.125000 0.000000 0.000000 7.133507 20.375327 4.234128
13.046382 17.843354 -22.435568 -0.106736 1.505532 1.076371 0.000000 0.000000 0.000000 -19.327694 -8.346782 -18.735795 0.843470 5.857935 16.372901 -0.243813 -8.904209 1.290247 0.565464 -4.808987 -13.365907 0.000000 0.000000 0.000000 23.550555 -3.679511 13.755828 -1.427302 -7.547656 21.351628 -0.082723 1.256380 -5.114540 -0.087544 1.876489 -5.165417 1.810333 2.469604 9.715868 -0.624509 3.438618 1.868715 -2.087172 1.687419 -3.350080 -12.817887 -7.796492 -19.850598 10.925061 -9.944791 23.466869 4.577558 -4.280758 12.281231 0.000000 0.000000 0.000000 1.497527 8.847392 -12.892243 15.031431 -24.189585 3.238971 17.273403 16.648592 -19.867825 0.000000 0.000000 0.000000 -7.125000 0.000000 0.000000 -11.091514 50.381681 1.479880 0.000000 0.000000 0.000000 1.760636 -2.687310 24.977708 -16.511916 -26.209556 -3.869498 -16.842761 0.611470 -9.060607 0.000000 0.000000 0.000000 7.125000 0.000000 0.000000 7.232947 20.553996 4.264983
13.070407 17.841570 -22.309254 -0.115325 1.697931 0.938450 0.000000 0.000000 0.000000 -19.459082 -7.987075 -18.247329 0.831974 5.818940 16.260090 -0.284084 -9.559193 1.607275 0.514767 -4.598763 -12.767663 0.000000 0.000000 0.000000 23.542080 -3.713758 13.238396 -1.666475 -8.126395 23.102836 -0.049728 0.791615 -3.939848 -0.065360 1.648688 -4.535716 1.793301 2.438631 9.751556 -0.594803 3.397580 1.879314 -2.043578 1.667173 -3.363666 -12.854919 -7.851850 -19.690744 10.910454 -10.016674 23.345067 4.563875 -4.323657 12.213581 0.000000 0.000000 0.000000 1.623094 8.923910 -14.100620 15.266111 -24.515243 3.335786 18.241223 16.286031 -21.273377 0.000000 0.000000 0.000000 -7.125000 0.000000 0.000000 -10.662659 51.963046 1.842685 0.000000 0.000000 0.000000 1.665311 -2.461281 24.873591 -16.313808 -25.944168 -3.782332 -16.320639 0.997192 -8.563442 0.000000 0.000000 0.000000 7.125000 0.000000 0.000000 7.616590 21.095007 4.402165
13.092992 17.847507 -22.178513 -0.122956 1.917814 0.764240 0.000000 0.000000 0.000000 -19.606498 -7.543608 -17.816581 0.833681 5.824752 16.276787 -0.324776 -10.199854 1.808066 0.491477 -4.493537 -12.469779 0.000000 0.000000 0.000000 23.505165 -3.827125 12.589495 -1.927437 -8.706548 24.885963 -0.020790 0.318521 -2.476911 -0.051773 1.443263 -3.969704 1.780669 2.401084 9.815652 -0.585177 3.347964 1.876152 -2.023976 1.642087 -3.406028 -12.833230 -7.895288 -19.511280 10.889264 -10.096166 23.272331 4.538397 -4.365949 12.158410 0.000000 0.000000 0.000000 1.788002 9.022132 -15.202299 15.478877 -24.808795 3.424503 18.820394 15.881093 -22.399804 0.000000 0.000000 0.000000 -7.125000 0.000000 0.000000 -10.518300 53.205592 2.141217 0.000000 0.000000 0.000000 1.569306 -2.150174 24.862755 -16.131633 -25.698548 -3.703024 -16.189199 1.098249 -8.620573 0.000000 0.000000 0.000000 7.125000 0.000000 0.000000 7.709930 21.042973 4.466596
13.115535 17.867549 -22.041673 -0.008742 2.126576 0.645727 0.000000 0.000000 0.000000 -19.937842 -6.902974 -17.435144 0.830945 5.815266 16.249290 -0.368187 -10.876065 1.792361 0.564571 -4.784153 -13.299376 0.000000 0.000000 0.000000 23.289722 -3.855742 11.701762 -2.223723 -9.309268 26.773728 -0.004506 -0.263194 -0.680036 -0.022843 0.445757 -1.225724 1.644996 2.358840 9.767743 -0.607937 3.276583 1.915812 -1.959497 1.609033 -3.347845 -12.804177 -7.936883 -19.508496 10.878860 -10.159812 23.236055 4.516500 -4.393119 12.150455 0.000000 0.000000 0.000000 1.925224 8.948618 -15.730721 15.607851 -24.986033 3.478679 18.378650 15.731025 -22.009937 0.000000 0.000000 0.000000 -7.125000 0.000000 0.000000 -10.806236 52.735746 2.064579 0.000000 0.000000 0.000000 1.457840 -1.965640 24.940832 -15.914653 -25.404405 -3.609449 -16.357850 1.041778 -9.071492 0.000000 0.000000 0.000000 7.125000 0.000000 0.000000 7.579512 20.569885 4.471773
13.140998 17.894644 -21.903954 0.238246 2.318892 0.601115 0.000000 0.000000 0.000000 -20.479560 -6.102737 -16.998517 0.806132 5.729813 16.002491 -0.416445 -11.613183 1.622923 0.741442 -5.498604 -15.336852 0.000000 0.000000 0.000000 22.867194 -3.880352 10.564155 -2.563048 -9.944928 28.804570 -0.009039 -0.657219 1.388697 -0.007007 -0.523126 1.437595 1.404166 2.363471 9.548273 -0.623261 3.254408 2.098001 -1.821088 1.605646 -3.051041 -12.958621 -8.094592 -19.857502 10.926341 -10.305616 23.239246 4.525663 -4.453839 12.255273 0.000000 0.000000 0.000000 1.976116 8.540753 -16.217780 15.723975 -25.144669 3.528043 17.604682 15.747039 -21.544732 0.000000 0.000000 0.000000 -7.125000 0.000000 0.000000 -11.399815 52.125530 2.023689 0.000000 0.000000 0.000000 1.249476 -2.106236 24.874545 -15.714926 -25.132452 -3.524068 -16.517115 1.157763 -9.379283 0.000000 0.000000 0.000000 7.125000 0.000000 0.000000 7.460455 20.243745 4.455375
13.170329 17.889693 -21.774226 0.589571 2.559445 0.566258 0.000000 0.000000 0.000000 -21.134572 -5.392293 -16.570993 0.774330 5.618077 15.680394 -0.468996 -12.303413 1.748236 0.774528 -5.617549 -15.679057 0.000000 0.000000 0.000000 22.270287 -4.210039 9.576971 -2.925208 -10.566935 30.838949 -0.040052 -0.722607 3.451163 -0.003927 -0.390152 1.072070 1.081986 2.379266 9.310513 -0.651670 3.241122 2.280489 -1.651616 1.606035 -2.746894 -13.216587 -8.284872 -20.175448 11.032783 -10.489305 23.286548 4.569540 -4.534288 12.387285 0.000000 0.000000 0.000000 2.024930 8.237892 -17.394307 15.984219 -25.498853 3.639396 17.236147 15.486458 -24.588834 0.000000 0.000000 0.000000 -7.125000 0.000000 0.000000 -13.255751 55.056450 3.488339 0.000000 0.000000 0.000000 1.009366 -2.238468 24.636029 -15.575913 -24.942174 -3.465217 -16.828711 1.417044 -9.576371 0.000000 0.000000 0.000000 7.125000 0.000000 0.000000 7.235332 20.022290 4.355043
